# xmcd
#
# Track frame offsets:
#	150
#	14063
#	41406
#	65867
#	90198
#	110628
#	133961
#	154364
#	173895
#	189918
#	208902
#	253696
#
# Disc length: 3764 seconds
#
# Revision: 1
# Processed by: cddbd v1.5.2PL0 Copyright (c) Steve Scherf et al.
# Submitted via: audiograbber 1.83.01
#
DISCID=b00eb20c
DTITLE=Stevie Cochran - Live At Montreux
DYEAR=2003
DGENRE=Blues-Rock
TTITLE0=I've Got A Reason
TTITLE1=Maybe It's You
TTITLE2=Sometimes
TTITLE3=Why Do They Kill?
TTITLE4=What You Do To Me
TTITLE5=Underground Theme
TTITLE6=Misunderstood
TTITLE7=Headed For Trouble
TTITLE8=You Amaze Me
TTITLE9=Got To Have A Song
TTITLE10=No Quarter
TTITLE11=In One Ear - Out The Other
EXTD=
EXTT0=
EXTT1=
EXTT2=
EXTT3=
EXTT4=
EXTT5=
EXTT6=
EXTT7=
EXTT8=
EXTT9=
EXTT10=
EXTT11=
PLAYORDER=
